<svg width="233" height="229" viewBox="0 0 233 229" fill="none" xmlns="http://www.w3.org/2000/svg">
<path d="M150.949 112.2C150.949 112.2 158.767 78.7745 132.528 62.3329C99.8941 41.883 62.8057 70.6875 58.9217 82.7193C58.9217 82.7193 71.9036 72.2091 78.2785 72.2091C78.2785 72.2091 51.9628 91.3417 54.4606 125.176C56.9585 159.01 89.8181 188.688 136.954 186.046C136.954 186.046 122.326 183.961 110.413 175.085C110.413 175.085 146.242 182.228 173.846 160.391C203.067 137.264 204.074 111.721 204.074 111.721C204.074 111.721 203.497 118.928 190.472 126.972C190.472 126.972 212.468 94.7089 199.014 58.8459C183.267 16.8684 140.022 1.21573 122.593 0.307005C103.884 -0.665121 86.7643 -0.439702 55.9312 18.4111C55.9312 18.4111 98.7119 0.736713 132.951 13.5927C132.951 13.5927 74.5 4.06167 29.5592 52.9145C-15.7757 102.197 4.01739 156.707 5.95237 171.676C5.95237 171.676 6.62786 141.399 15.5429 122.358C15.5429 122.358 5.92423 183.313 64.6422 215.555C112.208 241.669 149.036 221.698 149.036 221.698C149.036 221.698 109.653 228.869 84.5057 210.568C84.5057 210.568 170.841 235.9 214.199 176.861C253.335 123.57 219.23 67.9261 219.23 67.9261C219.23 67.9261 229.784 137.229 178.222 176.537C126.66 215.844 74.0286 195.106 60.5189 183.905C42.6185 169.055 21.1367 137.863 34.7379 96.3643C50.7173 47.6171 99.507 24.3918 135.857 37.0787C167.534 48.1384 181.825 81.1978 171.27 113.215C160.716 145.238 120.102 171.239 87.7142 141.399C87.7142 141.399 90.9931 152.945 97.0725 159.038C97.0725 159.038 58.0843 135.299 79.5943 96.9138C97.7409 64.5378 151.301 76.1258 150.942 112.207L150.949 112.2Z" fill="url(#paint0_linear_152_200)"/>
<defs>
<linearGradient id="paint0_linear_152_200" x1="-0.000345323" y1="0.00413024" x2="278.64" y2="310.344" gradientUnits="userSpaceOnUse">
<stop stop-color="#32FCC7"/>
<stop offset="1" stop-color="#1AD6FF"/>
</linearGradient>
</defs>
</svg>
